<svg width="40" height="40" viewBox="0 0 40 40" fill="none" xmlns="http://www.w3.org/2000/svg">
<path fill-rule="evenodd" clip-rule="evenodd" d="M13.3334 3.75C14.0238 3.75 14.5834 4.30965 14.5834 5V7.08333H25.4167V5C25.4167 4.30965 25.9764 3.75 26.6667 3.75C27.3571 3.75 27.9167 4.30965 27.9167 5V7.18243C31.6846 7.78555 34.5834 11.0681 34.5834 15V28.3333C34.5834 32.6903 31.0237 36.25 26.6667 36.25H13.3334C8.78931 36.25 5.41675 32.6698 5.41675 28.3333V15C5.41675 11.0681 8.31565 7.78555 12.0834 7.18243V5C12.0834 4.30965 12.6431 3.75 13.3334 3.75ZM25.4167 9.58333V11.6667C25.4167 12.357 25.9764 12.9167 26.6667 12.9167C27.3571 12.9167 27.9167 12.357 27.9167 11.6667V9.73023C30.2969 10.2992 32.0834 12.4534 32.0834 15V28.3333C32.0834 31.3097 29.6431 33.75 26.6667 33.75H13.3334C10.2108 33.75 7.91675 31.3302 7.91675 28.3333V15C7.91675 12.4534 9.70325 10.2992 12.0834 9.73023V11.6667C12.0834 12.357 12.6431 12.9167 13.3334 12.9167C14.0238 12.9167 14.5834 12.357 14.5834 11.6667V9.58333H25.4167ZM12.0834 18.3333C12.0834 17.643 12.6431 17.0833 13.3334 17.0833H26.6667C27.3571 17.0833 27.9167 17.643 27.9167 18.3333C27.9167 19.0237 27.3571 19.5833 26.6667 19.5833H13.3334C12.6431 19.5833 12.0834 19.0237 12.0834 18.3333ZM13.3334 25.4167C12.6431 25.4167 12.0834 25.9763 12.0834 26.6667C12.0834 27.357 12.6431 27.9167 13.3334 27.9167H26.6667C27.3571 27.9167 27.9167 27.357 27.9167 26.6667C27.9167 25.9763 27.3571 25.4167 26.6667 25.4167H13.3334Z" fill="#5858F6"/>
</svg>
