<svg width="57" height="58" viewBox="0 0 57 58" fill="none" xmlns="http://www.w3.org/2000/svg">
<path d="M54.5999 0.540795C52.5597 0.189381 50.4938 0.00849511 48.4236 1.23818e-05C41.3603 -0.00577821 34.4443 2.01962 28.5 5.83477C22.5404 2.06971 15.6255 0.0940255 8.57643 0.142323C6.50622 0.150806 4.44031 0.331692 2.40013 0.683106C1.73186 0.798317 1.12667 1.14835 0.693572 1.67016C0.260469 2.19197 0.0279059 2.85127 0.0377644 3.52933V37.684C0.0316687 38.1022 0.117818 38.5166 0.290082 38.8978C0.462346 39.2789 0.716492 39.6174 1.03444 39.8891C1.35238 40.1609 1.72631 40.3592 2.12961 40.47C2.53292 40.5808 2.95569 40.6014 3.36785 40.5302C7.44654 39.824 11.6253 39.9412 15.658 40.8748C19.6907 41.8085 23.4958 43.5397 26.8492 45.9665L27.1907 46.1658H27.5038C27.8195 46.2973 28.158 46.365 28.5 46.365C28.842 46.365 29.1805 46.2973 29.4962 46.1658H29.8093L30.1508 45.9665C33.4808 43.4855 37.2749 41.6981 41.3084 40.7106C45.3419 39.723 49.5326 39.5552 53.6322 40.2171C54.0443 40.2883 54.4671 40.2677 54.8704 40.1569C55.2737 40.0461 55.6476 39.8478 55.9656 39.576C56.2835 39.3043 56.5376 38.9658 56.7099 38.5847C56.8822 38.2035 56.9683 37.7891 56.9622 37.3709V3.21624C56.9326 2.56774 56.6822 1.94885 56.2525 1.46222C55.8228 0.975598 55.2397 0.650479 54.5999 0.540795ZM25.6538 38.3671C20.3879 35.5968 14.5265 34.151 8.57643 34.1547C7.63718 34.1547 6.69793 34.1547 5.73021 34.1547V5.69246C6.67817 5.63783 7.62848 5.63783 8.57643 5.69246C14.6485 5.68575 20.5881 7.46762 25.6538 10.8157V38.3671ZM51.2698 34.2685C50.3021 34.2685 49.3628 34.2685 48.4236 34.2685C42.4735 34.2649 36.6121 35.7107 31.3462 38.481V10.8157C36.4119 7.46762 42.3515 5.68575 48.4236 5.69246C49.3715 5.63783 50.3218 5.63783 51.2698 5.69246V34.2685ZM54.5999 46.0804C52.5597 45.729 50.4938 45.5481 48.4236 45.5396C41.3603 45.5338 34.4443 47.5592 28.5 51.3744C22.5557 47.5592 15.6397 45.5338 8.57643 45.5396C6.50622 45.5481 4.44031 45.729 2.40013 46.0804C2.02963 46.1392 1.67441 46.2706 1.35489 46.4672C1.03537 46.6637 0.757862 46.9215 0.53832 47.2257C0.318778 47.5299 0.161534 47.8745 0.0756298 48.2397C-0.0102739 48.6048 -0.0231423 48.9834 0.0377644 49.3535C0.182406 50.0926 0.614097 50.7443 1.23827 51.1658C1.86245 51.5872 2.62822 51.7441 3.36785 51.602C7.44654 50.8959 11.6253 51.013 15.658 51.9467C19.6907 52.8803 23.4958 54.6115 26.8492 57.0383C27.3312 57.3815 27.9083 57.566 28.5 57.566C29.0917 57.566 29.6688 57.3815 30.1508 57.0383C33.5042 54.6115 37.3093 52.8803 41.342 51.9467C45.3747 51.013 49.5535 50.8959 53.6322 51.602C54.3718 51.7441 55.1375 51.5872 55.7617 51.1658C56.3859 50.7443 56.8176 50.0926 56.9622 49.3535C57.0231 48.9834 57.0103 48.6048 56.9244 48.2397C56.8385 47.8745 56.6812 47.5299 56.4617 47.2257C56.2421 46.9215 55.9646 46.6637 55.6451 46.4672C55.3256 46.2706 54.9704 46.1392 54.5999 46.0804Z" fill="#5858F6"/>
<path d="M54.5999 46.0779C52.5597 45.7265 50.4938 45.5456 48.4236 45.5371C41.3603 45.5313 34.4443 47.5567 28.5 51.3719C22.5557 47.5567 15.6397 45.5313 8.57643 45.5371C6.50622 45.5456 4.44031 45.7265 2.40013 46.0779C2.02963 46.1367 1.67441 46.2682 1.35489 46.4647C1.03537 46.6613 0.757862 46.9191 0.53832 47.2232C0.318778 47.5274 0.161534 47.872 0.0756298 48.2372C-0.0102739 48.6023 -0.0231423 48.9809 0.0377644 49.3511C0.182406 50.0902 0.614097 50.7418 1.23827 51.1633C1.86245 51.5847 2.62822 51.7416 3.36785 51.5996C7.44654 50.8934 11.6253 51.0106 15.658 51.9442C19.6907 52.8778 23.4958 54.609 26.8492 57.0359C27.3312 57.3791 27.9083 57.5635 28.5 57.5635C29.0917 57.5635 29.6688 57.3791 30.1508 57.0359C33.5042 54.609 37.3093 52.8778 41.342 51.9442C45.3747 51.0106 49.5535 50.8934 53.6322 51.5996C54.3718 51.7416 55.1375 51.5847 55.7617 51.1633C56.3859 50.7418 56.8176 50.0902 56.9622 49.3511C57.0231 48.9809 57.0103 48.6023 56.9244 48.2372C56.8385 47.872 56.6812 47.5274 56.4617 47.2232C56.2421 46.9191 55.9646 46.6613 55.6451 46.4647C55.3256 46.2682 54.9704 46.1367 54.5999 46.0779Z" fill="#4A4A4A"/>
</svg>
