<svg width="50" height="50" viewBox="0 0 50 50" fill="none" xmlns="http://www.w3.org/2000/svg">
<path fill-rule="evenodd" clip-rule="evenodd" d="M25.5562 4.24992L9.52153 12.2341L25.5562 20.2182L41.5911 12.2341L25.5562 4.24992ZM26.7192 0.272339C25.99 -0.0907797 25.1225 -0.0907795 24.3932 0.272339L4.69799 10.0791C2.87932 10.9847 2.87931 13.4834 4.69799 14.389L24.3932 24.1957C25.1225 24.5589 25.99 24.5589 26.7192 24.1957L46.4144 14.389C48.2331 13.4834 48.2331 10.9847 46.4144 10.0791L26.7192 0.272339Z" fill="#303030"/>
<path d="M2.29255 18.091C2.226 18.0871 2.15853 18.0851 2.0903 18.0851C0.93586 18.0851 0 18.6594 0 19.3679L8.33649e-07 35.4188C8.33649e-07 36.1272 0.93586 36.7015 2.0903 36.7015C3.24473 36.7015 4.1806 36.1272 4.1806 35.4188V23.3349L24.0373 33.3063C24.0826 33.329 24.1284 33.3499 24.1745 33.3691C24.7404 33.6365 25.4204 33.6514 26.0189 33.3507L45.8193 23.4075V35.1717L25.0723 45.5902L9.41793 37.7169C8.61924 37.3158 7.54399 37.804 7.0163 38.8074C6.48862 39.8106 6.7083 40.9491 7.50699 41.3502L24.4285 49.8598C24.8652 50.079 25.3846 50.0324 25.852 49.7813C25.913 49.7575 25.9734 49.7304 26.033 49.7006L48.849 38.2429C48.9808 38.1769 49.1021 38.099 49.2126 38.0113C49.6926 37.7539 50 37.3577 50 36.9131V19.4994C50 18.7238 49.0642 18.0951 47.9098 18.0951C47.3299 18.0951 46.8053 18.2536 46.4267 18.5097L25.0723 29.2332L3.3207 18.3102C2.99187 18.1451 2.63827 18.0755 2.29255 18.091Z" fill="#5858F6"/>
</svg>
