<svg width="40" height="40" viewBox="0 0 40 40" fill="none" xmlns="http://www.w3.org/2000/svg">
<path fill-rule="evenodd" clip-rule="evenodd" d="M11.6667 6.25C8.52368 6.25 6.25 8.52368 6.25 11.6667V28.3333C6.25 31.3097 8.69035 33.75 11.6667 33.75H18.75V6.25H11.6667ZM28.3333 33.75H21.25V6.25H28.3333C31.3097 6.25 33.75 8.69035 33.75 11.6667V28.3333C33.75 31.3097 31.3097 33.75 28.3333 33.75ZM3.75 11.6667C3.75 7.14298 7.14298 3.75 11.6667 3.75H28.3333C32.6903 3.75 36.25 7.30965 36.25 11.6667V28.3333C36.25 32.6903 32.6903 36.25 28.3333 36.25H11.6667C7.30965 36.25 3.75 32.6903 3.75 28.3333V11.6667ZM10.4997 12.0833C9.80932 12.0833 9.24967 12.643 9.24967 13.3333C9.24967 14.0237 9.80932 14.5833 10.4997 14.5833H13.833C14.5234 14.5833 15.083 14.0237 15.083 13.3333C15.083 12.643 14.5234 12.0833 13.833 12.0833H10.4997V12.0833ZM9.24967 20C9.24967 19.3097 9.80932 18.75 10.4997 18.75H13.833C14.5234 18.75 15.083 19.3097 15.083 20C15.083 20.6903 14.5234 21.25 13.833 21.25H10.4997C9.80932 21.25 9.24967 20.6903 9.24967 20V20ZM10.4997 25.4167C9.80932 25.4167 9.24967 25.9763 9.24967 26.6667C9.24967 27.357 9.80932 27.9167 10.4997 27.9167H13.833C14.5234 27.9167 15.083 27.357 15.083 26.6667C15.083 25.9763 14.5234 25.4167 13.833 25.4167H10.4997V25.4167Z" fill="#5858F6"/>
</svg>
